<?xml version="1.0" standalone="no"?><!DOCTYPE svg PUBLIC "-//W3C//DTD SVG 1.1//EN" "http://www.w3.org/Graphics/SVG/1.1/DTD/svg11.dtd"><svg class="icon" style="" viewBox="0 0 1025 1024" version="1.1" xmlns="http://www.w3.org/2000/svg" p-id="1654" xmlns:xlink="http://www.w3.org/1999/xlink" width="32.03125" height="32"><defs><style type="text/css"><![CDATA[

]]></style></defs><path d="M1024.066 701.037V196.875C1024.066 88.199 935.872 0 827.126 0H196.874C88.199 0 0 88.2 0 196.875v630.25C0 935.805 88.133 1024 196.875 1024h630.25c96.841 0 177.42-70.021 193.872-162.122C968.77 839.28 742.45 741.55 624.555 685.29c-89.731 108.681-183.692 173.901-325.333 173.901s-236.173-87.239-224.844-194c7.488-70.082 55.556-184.652 264.337-165.002 110.024 10.307 160.396 30.85 250.127 60.484 23.235-42.562 42.501-89.414 57.155-139.275H248.079v-39.426h196.875V311.19H204.812v-43.395h240.142V165.642s2.176-16.003 19.844-16.003h98.44v118.156h256.016v43.395H563.238v70.787h208.847c-19.2 78.147-48.324 149.96-84.808 212.683 60.68 21.958 336.79 106.377 336.79 106.377z m-740.524 90.57c-149.645 0-173.324-94.472-165.386-133.96 7.87-39.298 51.204-90.568 134.408-90.568 95.62 0 181.26 24.45 284.052 74.5-72.202 94.022-160.911 150.027-253.074 150.027z" fill="#01AAEE" p-id="1655"></path></svg>