<?xml version="1.0" standalone="no"?><!DOCTYPE svg PUBLIC "-//W3C//DTD SVG 1.1//EN" "http://www.w3.org/Graphics/SVG/1.1/DTD/svg11.dtd"><svg class="icon" style="" viewBox="0 0 1024 1024" version="1.1" xmlns="http://www.w3.org/2000/svg" p-id="3801" xmlns:xlink="http://www.w3.org/1999/xlink" width="32" height="32"><defs><style type="text/css"><![CDATA[

]]></style></defs><path d="M865.206786 499.026101 594.691856 499.026101 970.143092 0l-159.974874 0L514.509505 392.969045 218.850793 0 58.875919 0l375.451236 499.026101L158.817578 499.026101C145.319851 499.026101 134.355992 510.136144 134.355992 523.828785l0 47.899879c0 13.692641 10.963858 24.77832 24.461586 24.77832L451.089676 596.506983l0 121.089724L158.817578 717.596707c-13.497728 0-24.461586 11.085679-24.461586 24.77832l0 47.924243c0 13.692641 10.963858 24.77832 24.461586 24.77832L451.089676 815.077589l0 184.509553c0 13.497728 11.62169 24.412858 25.923434 24.412858l69.97378 0c14.326108 0 25.89907-10.91513 25.89907-24.412858l0-184.509553 292.296462 0c13.546456 0 24.437222-11.085679 24.437222-24.77832l0-47.924243c0-13.692641-10.890766-24.77832-24.437222-24.77832L572.910324 717.596707l0-121.089724 292.296462 0c13.546456 0 24.437222-11.085679 24.437222-24.77832L889.644008 523.828785C889.644008 510.136144 878.753242 499.026101 865.206786 499.026101z" p-id="3802" fill="#D36876"></path></svg>