<?xml version="1.0" standalone="no"?><!DOCTYPE svg PUBLIC "-//W3C//DTD SVG 1.1//EN" "http://www.w3.org/Graphics/SVG/1.1/DTD/svg11.dtd"><svg class="icon" style="" viewBox="0 0 1366 1024" version="1.1" xmlns="http://www.w3.org/2000/svg" p-id="15945" xmlns:xlink="http://www.w3.org/1999/xlink" width="42.6875" height="32"><defs><style type="text/css"><![CDATA[

]]></style></defs><path d="M0 225.138846 0 56.284711C0 40.524984 5.440853 27.204267 16.36008 16.28504 27.204267 5.440853 40.524984 0 56.284711 0L1294.548388 0C1310.308089 0 1323.666327 5.440853 1334.510513 16.28504 1345.392246 27.204267 1350.833099 40.524984 1350.833099 56.284711L1350.833099 225.138846 0 225.138846 0 225.138846 0 225.138846 0 225.138846ZM1350.833099 337.708268 1350.833099 956.84012C1350.833099 972.599821 1345.392246 985.920538 1334.510513 996.764725 1323.666327 1007.721498 1310.308089 1013.124831 1294.548388 1013.124831L56.284711 1013.124831C40.524984 1013.124831 27.204267 1007.721498 16.36008 996.764725 5.440853 985.920538 0 972.599821 0 956.84012L0 337.708268 1350.833099 337.708268 1350.833099 337.708268 1350.833099 337.708268 1350.833099 337.708268ZM112.569423 900.555382 562.847114 900.555382 562.847114 675.416537 112.569423 675.416537 112.569423 675.416537 112.569423 900.555382 112.569423 900.555382Z" p-id="15946" fill="#f7b61f"></path></svg>