<?xml version="1.0" standalone="no"?><!DOCTYPE svg PUBLIC "-//W3C//DTD SVG 1.1//EN" "http://www.w3.org/Graphics/SVG/1.1/DTD/svg11.dtd"><svg class="icon" style="" viewBox="0 0 1024 1024" version="1.1" xmlns="http://www.w3.org/2000/svg" p-id="5607" xmlns:xlink="http://www.w3.org/1999/xlink" width="32" height="32"><defs><style type="text/css"><![CDATA[

]]></style></defs><path d="M877.714286 121.904762 146.285714 121.904762c-80.774095 0-146.285714 65.511619-146.285714 146.285714l0 35.05981 1024 0L1024 268.190476C1024 187.416381 958.488381 121.904762 877.714286 121.904762z" p-id="5608" fill="#943EBD"></path><path d="M0 755.809524c0 80.774095 65.511619 146.285714 146.285714 146.285714l731.428571 0c80.774095 0 146.285714-65.511619 146.285714-146.285714L1024 400.774095 0 400.774095 0 755.809524zM679.765333 494.713905l88.283429 105.20381 88.30781-105.20381 69.485714 0-122.758095 146.334476 74.50819 0c6.851048 0 12.409905 5.241905 12.409905 11.678476l0 25.380571c0 6.460952-5.558857 11.678476-12.409905 11.678476l-34.06019 0-51.053714 0 0 23.868952 85.113905 0c6.851048 0 12.409905 5.241905 12.409905 11.678476l0 25.380571c0 6.460952-5.558857 11.678476-12.409905 11.678476l-85.089524 0 0 36.547048c0 6.851048-5.241905 12.385524-11.678476 12.385524l-25.380571 0c-6.460952 0-11.678476-5.534476-11.678476-12.385524l0-36.547048-85.162667 0c-6.851048 0-12.385524-5.241905-12.385524-11.678476l0-25.380571c0-6.460952 5.534476-11.678476 12.385524-11.678476l85.138286 0 0-23.868952L692.662857 689.785905l-34.108952 0c-6.851048 0-12.385524-5.241905-12.385524-11.678476l0-25.380571c0-6.460952 5.534476-11.678476 12.385524-11.678476l74.556952 0-122.806857-146.334476L679.765333 494.713905z" p-id="5609" fill="#943EBD"></path></svg>