<?xml version="1.0" standalone="no"?><!DOCTYPE svg PUBLIC "-//W3C//DTD SVG 1.1//EN" "http://www.w3.org/Graphics/SVG/1.1/DTD/svg11.dtd"><svg class="icon" style="" viewBox="0 0 1024 1024" version="1.1" xmlns="http://www.w3.org/2000/svg" p-id="27658" xmlns:xlink="http://www.w3.org/1999/xlink" width="32" height="32"><defs><style type="text/css"><![CDATA[

]]></style></defs><path d="M337.119017 301.186643l626.551966 0 0 95.063099-626.551966 0 0-95.063099Z" p-id="27659" fill="#f7b61f"></path><path d="M713.049992 119.702266 691.444928 54.887075 579.097164 80.812537 592.060407 119.702266 311.192531 119.702266 311.192531 214.765365 989.597469 214.765365 989.597469 119.702266Z" p-id="27660" fill="#f7b61f"></path><path d="M155.63464 72.170716 30.324656 465.386356 82.176604 499.090992 82.176604 966.628338 190.202946 966.628338 190.202946 478.349599 131.148969 478.349599 246.376317 132.665509Z" p-id="27661" fill="#f7b61f"></path><path d="M332.797595 966.628338l630.873388 0L963.670983 677.117618 332.797595 677.117618 332.797595 966.628338zM440.823937 776.50214l414.820704 0 0 95.063099L440.823937 871.565239 440.823937 776.50214z" p-id="27662" fill="#f7b61f"></path><path d="M337.119017 486.99142l626.551966 0 0 95.063099-626.551966 0 0-95.063099Z" p-id="27663" fill="#f7b61f"></path></svg>