<?xml version="1.0" standalone="no"?><!DOCTYPE svg PUBLIC "-//W3C//DTD SVG 1.1//EN" "http://www.w3.org/Graphics/SVG/1.1/DTD/svg11.dtd"><svg class="icon" style="" viewBox="0 0 1024 1024" version="1.1" xmlns="http://www.w3.org/2000/svg" p-id="25876" xmlns:xlink="http://www.w3.org/1999/xlink" width="32" height="32"><defs><style type="text/css"><![CDATA[

]]></style></defs><path d="M64.303027 350.918301 243.282351 100.347452l0 823.305095-71.592548 0 0-608.529497-71.591525 107.386776L64.303027 350.918301zM279.078625 279.326776l35.795251 0c52.960189 0 107.386776 54.113455 107.386776 107.386776l0 429.551196c0 19.890003 16.010649 35.795251 35.795251 35.795251l35.795251 0 0 71.591525-35.795251 0c-52.993958 0-107.386776-54.114478-107.386776-107.386776L350.669126 386.713552c0-19.820418-16.046464-35.795251-35.795251-35.795251l-35.795251 0L279.078625 279.326776zM386.4654 100.347452l0 143.184073-71.591525 0L314.873876 100.347452 386.4654 100.347452zM923.403373 279.326776l0 71.591525 35.795251 0 0 71.591525L672.832524 422.509826c-10.766205 30.65723-23.212678 47.26242-35.795251 71.592548 3.565199 0 31.320333 0 35.795251 0l214.775598 0c43.975561 0 71.591525 27.405163 71.591525 71.591525 0 0 1.118474 192.227046 0 286.367123 0 45.38977-25.483394 71.591525-71.591525 71.591525L637.036249 923.652548c-43.975561 0-71.591525-27.336602-71.591525-71.591525L565.444724 601.48915c-8.949836 12.602016-62.60792 59.881832-71.592548 71.591525l-35.795251-71.591525c66.138326-55.056943 112.667036-102.301967 143.184073-178.979324l-71.591525 0 0-71.591525 178.978301 0L708.627774 243.531526 529.649474 243.531526l-0.839111-75.891458 179.818435 4.299933L708.628798 100.347452l71.592548 0 0 71.592548L959.199647 171.940001l0 71.591525L780.220323 243.531526l0 107.386776 71.591525 0 0-71.591525L923.403373 279.326776zM637.036249 673.080675l250.570849 0 0-71.591525c2.237971-19.751856-28.385491-36.913724-35.795251-35.795251L672.832524 565.6939c-10.766205 0-35.795251 24.994254-35.795251 35.795251L637.037273 673.080675zM887.608122 744.6722 637.036249 744.6722l0 71.592548c0 10.800997 25.029046 35.795251 35.795251 35.795251l178.979324 0c18.596544-1.118474 35.795251-20.520359 35.795251-35.795251L887.606075 744.6722z" p-id="25877" fill="#943EBD"></path></svg>